0
SECTION
2
ENTITIES
0
LINE
8
FLB
10
0.000
20
0.000
30
0
11
200.000
21
0.000
31
0
0
LINE
8
FLB
10
200.000
20
0.000
30
0
11
200.000
21
40.000
31
0
0
LINE
8
FLB
10
200.000
20
40.000
30
0
11
0.000
21
40.000
31
0
0
LINE
8
FLB
10
0.000
20
40.000
30
0
11
0.000
21
0.000
31
0
0
LINE
8
FLB
10
0.000
20
80.000
30
0
11
200.000
21
80.000
31
0
0
LINE
8
FLB
10
200.000
20
80.000
30
0
11
200.000
21
120.000
31
0
0
LINE
8
FLB
10
200.000
20
120.000
30
0
11
0.000
21
120.000
31
0
0
LINE
8
FLB
10
0.000
20
120.000
30
0
11
0.000
21
80.000
31
0
0
LINE
8
JT
10
250.000
20
0.000
30
0
11
370.000
21
0.000
31
0
0
LINE
8
JT
10
370.000
20
0.000
30
0
11
370.000
21
60.000
31
0
0
LINE
8
JT
10
370.000
20
60.000
30
0
11
250.000
21
60.000
31
0
0
LINE
8
JT
10
250.000
20
60.000
30
0
11
250.000
21
0.000
31
0
0
CIRCLE
8
LS
10
10.000
20
10.000
30
0
40
4.250
0
CIRCLE
8
LS
10
190.000
20
10.000
30
0
40
4.250
0
CIRCLE
8
LS
10
10.000
20
30.000
30
0
40
4.250
0
CIRCLE
8
LS
10
190.000
20
30.000
30
0
40
4.250
0
CIRCLE
8
RZ
10
100.000
20
20.000
30
0
40
11.350
0
CIRCLE
8
DK
10
100.000
20
20.000
30
0
40
3.000
0
CIRCLE
8
RZ
10
100.000
20
100.000
30
0
40
11.350
0
CIRCLE
8
DK
10
100.000
20
100.000
30
0
40
3.000
0
LINE
8
DP
10
0.000
20
-80.000
30
0
11
60.000
21
-80.000
31
0
0
LINE
8
DP
10
60.000
20
-80.000
30
0
11
60.000
21
-20.000
31
0
0
LINE
8
DP
10
60.000
20
-20.000
30
0
11
0.000
21
-20.000
31
0
0
LINE
8
DP
10
0.000
20
-20.000
30
0
11
0.000
21
-80.000
31
0
0
LINE
8
DP
10
10.000
20
-70.000
30
0
11
50.000
21
-70.000
31
0
0
LINE
8
DP
10
50.000
20
-70.000
30
0
11
50.000
21
-30.000
31
0
0
LINE
8
DP
10
50.000
20
-30.000
30
0
11
10.000
21
-30.000
31
0
0
LINE
8
DP
10
10.000
20
-30.000
30
0
11
10.000
21
-70.000
31
0
0
LINE
8
CX
10
0.000
20
160.000
30
0
11
30.000
21
160.000
31
0
0
LINE
8
CX
10
30.000
20
160.000
30
0
11
30.000
21
170.000
31
0
0
LINE
8
CX
10
30.000
20
170.000
30
0
11
0.000
21
170.000
31
0
0
LINE
8
CX
10
0.000
20
170.000
30
0
11
0.000
21
160.000
31
0
0
LINE
8
JRT
10
0.000
20
220.000
30
0
11
120.000
21
220.000
31
0
0
LINE
8
JRT
10
120.000
20
220.000
30
0
11
120.000
21
250.000
31
0
0
LINE
8
JRT
10
120.000
20
250.000
30
0
11
0.000
21
250.000
31
0
0
LINE
8
JRT
10
0.000
20
250.000
30
0
11
0.000
21
220.000
31
0
0
LINE
8
LD
10
0
20
-30
30
0
11
0
21
-31
31
0
0
ENDSEC
0
EOF